<svg viewBox="0 0 2400 800">
  <g id="gray">
    <rect x="0" y="0" width="200" height="50" fill="#f6f8fa"/><rect x="0" y="50" width="200" height="50" fill="#eaeef2"/><rect x="0" y="100" width="200" height="50" fill="#d0d7de"/><rect x="0" y="150" width="200" height="50" fill="#afb8c1"/><rect x="0" y="200" width="200" height="50" fill="#8c959f"/><rect x="0" y="250" width="200" height="50" fill="#6e7781"/><rect x="0" y="300" width="200" height="50" fill="#57606a"/><rect x="0" y="350" width="200" height="50" fill="#424a53"/><rect x="0" y="400" width="200" height="50" fill="#32383f"/><rect x="0" y="450" width="200" height="50" fill="#24292f"/>
  </g>,<g id="blue">
    <rect x="200" y="0" width="200" height="50" fill="#ddf4ff"/><rect x="200" y="50" width="200" height="50" fill="#b6e3ff"/><rect x="200" y="100" width="200" height="50" fill="#80ccff"/><rect x="200" y="150" width="200" height="50" fill="#54aeff"/><rect x="200" y="200" width="200" height="50" fill="#218bff"/><rect x="200" y="250" width="200" height="50" fill="#0969da"/><rect x="200" y="300" width="200" height="50" fill="#0550ae"/><rect x="200" y="350" width="200" height="50" fill="#033d8b"/><rect x="200" y="400" width="200" height="50" fill="#0a3069"/><rect x="200" y="450" width="200" height="50" fill="#002155"/>
  </g>,<g id="green">
    <rect x="400" y="0" width="200" height="50" fill="#dafbe1"/><rect x="400" y="50" width="200" height="50" fill="#aceebb"/><rect x="400" y="100" width="200" height="50" fill="#6fdd8b"/><rect x="400" y="150" width="200" height="50" fill="#4ac26b"/><rect x="400" y="200" width="200" height="50" fill="#2da44e"/><rect x="400" y="250" width="200" height="50" fill="#1a7f37"/><rect x="400" y="300" width="200" height="50" fill="#116329"/><rect x="400" y="350" width="200" height="50" fill="#044f1e"/><rect x="400" y="400" width="200" height="50" fill="#003d16"/><rect x="400" y="450" width="200" height="50" fill="#002d11"/>
  </g>,<g id="yellow">
    <rect x="600" y="0" width="200" height="50" fill="#fff8c5"/><rect x="600" y="50" width="200" height="50" fill="#fae17d"/><rect x="600" y="100" width="200" height="50" fill="#eac54f"/><rect x="600" y="150" width="200" height="50" fill="#d4a72c"/><rect x="600" y="200" width="200" height="50" fill="#bf8700"/><rect x="600" y="250" width="200" height="50" fill="#9a6700"/><rect x="600" y="300" width="200" height="50" fill="#7d4e00"/><rect x="600" y="350" width="200" height="50" fill="#633c01"/><rect x="600" y="400" width="200" height="50" fill="#4d2d00"/><rect x="600" y="450" width="200" height="50" fill="#3b2300"/>
  </g>,<g id="orange">
    <rect x="800" y="0" width="200" height="50" fill="#fff1e5"/><rect x="800" y="50" width="200" height="50" fill="#ffd8b5"/><rect x="800" y="100" width="200" height="50" fill="#ffb77c"/><rect x="800" y="150" width="200" height="50" fill="#fb8f44"/><rect x="800" y="200" width="200" height="50" fill="#e16f24"/><rect x="800" y="250" width="200" height="50" fill="#bc4c00"/><rect x="800" y="300" width="200" height="50" fill="#953800"/><rect x="800" y="350" width="200" height="50" fill="#762c00"/><rect x="800" y="400" width="200" height="50" fill="#5c2200"/><rect x="800" y="450" width="200" height="50" fill="#471700"/>
  </g>,<g id="red">
    <rect x="1000" y="0" width="200" height="50" fill="#ffebe9"/><rect x="1000" y="50" width="200" height="50" fill="#ffcecb"/><rect x="1000" y="100" width="200" height="50" fill="#ffaba8"/><rect x="1000" y="150" width="200" height="50" fill="#ff8182"/><rect x="1000" y="200" width="200" height="50" fill="#fa4549"/><rect x="1000" y="250" width="200" height="50" fill="#cf222e"/><rect x="1000" y="300" width="200" height="50" fill="#a40e26"/><rect x="1000" y="350" width="200" height="50" fill="#82071e"/><rect x="1000" y="400" width="200" height="50" fill="#660018"/><rect x="1000" y="450" width="200" height="50" fill="#4c0014"/>
  </g>,<g id="purple">
    <rect x="1200" y="0" width="200" height="50" fill="#ec8ce4"/><rect x="1200" y="50" width="200" height="50" fill="#e67cee"/><rect x="1200" y="100" width="200" height="50" fill="#e960f2"/><rect x="1200" y="150" width="200" height="50" fill="#d33bf6"/><rect x="1200" y="200" width="200" height="50" fill="#ba1ff7"/><rect x="1200" y="250" width="200" height="50" fill="#a116e6"/><rect x="1200" y="300" width="200" height="50" fill="#860bcd"/><rect x="1200" y="350" width="200" height="50" fill="#7505a9"/><rect x="1200" y="400" width="200" height="50" fill="#590299"/><rect x="1200" y="450" width="200" height="50" fill="#4b0079"/><rect x="1200" y="500" width="200" height="50" fill="#380067"/><rect x="1200" y="550" width="200" height="50" fill="#320057"/><rect x="1200" y="600" width="200" height="50" fill="#fefdff"/><rect x="1200" y="650" width="200" height="50" fill="#ffe5dc"/><rect x="1200" y="700" width="200" height="50" fill="#ffc0a4"/><rect x="1200" y="750" width="200" height="50" fill="#ff9a53"/>
  </g>,<g id="pink">
    <rect x="1400" y="0" width="200" height="50" fill="#ffeff7"/><rect x="1400" y="50" width="200" height="50" fill="#ffd3eb"/><rect x="1400" y="100" width="200" height="50" fill="#ffadda"/><rect x="1400" y="150" width="200" height="50" fill="#ff80c8"/><rect x="1400" y="200" width="200" height="50" fill="#e85aad"/><rect x="1400" y="250" width="200" height="50" fill="#bf3989"/><rect x="1400" y="300" width="200" height="50" fill="#99286e"/><rect x="1400" y="350" width="200" height="50" fill="#772057"/><rect x="1400" y="400" width="200" height="50" fill="#611347"/><rect x="1400" y="450" width="200" height="50" fill="#4d0336"/>
  </g>,<g id="coral">
    <rect x="1600" y="0" width="200" height="50" fill="#fff0eb"/><rect x="1600" y="50" width="200" height="50" fill="#ffd6cc"/><rect x="1600" y="100" width="200" height="50" fill="#ffb4a1"/><rect x="1600" y="150" width="200" height="50" fill="#fd8c73"/><rect x="1600" y="200" width="200" height="50" fill="#ec6547"/><rect x="1600" y="250" width="200" height="50" fill="#c4432b"/><rect x="1600" y="300" width="200" height="50" fill="#9e2f1c"/><rect x="1600" y="350" width="200" height="50" fill="#801f0f"/><rect x="1600" y="400" width="200" height="50" fill="#691105"/><rect x="1600" y="450" width="200" height="50" fill="#510901"/>
  </g>,<g id="black">
    <rect x="1800" y="0" width="200" height="50" fill="#1b1f24"/>
  </g>,<g id="white">
    <rect x="2000" y="0" width="200" height="50" fill="#ffffff"/>
  </g>,<g id="mediumorchid">
    <rect x="2200" y="0" width="200" height="50" fill="#f9e50"/>
  </g>
</svg>